<svg preserveAspectRatio="none" overflow="visible" style="display: block;" width="72" height="72" viewBox="0 0 72 72" fill="none" xmlns="http://www.w3.org/2000/svg">
<g id="car-line">
<path id="Subtract" d="M53.0439 13C55.044 13.0001 56.8517 14.1919 57.6396 16.0303L65 33.2041V63C65 64.1046 64.1046 65 63 65H62C60.8954 65 60 64.1046 60 63V59H12V63C12 64.1046 11.1046 65 10 65H9C7.89543 65 7 64.1046 7 63V33.2041L14.3604 16.0303C15.1482 14.1919 16.9561 13.0001 18.9561 13H53.0439ZM11 38V55H61V38H11ZM19.5 43C21.433 43 23 44.5671 23 46.5C23 48.4329 21.433 50 19.5 50C17.567 50 16 48.4329 16 46.5C16 44.5671 17.567 43 19.5 43ZM52.5 43C54.4329 43 56 44.5671 56 46.5C56 48.4329 54.4329 50 52.5 50C50.5671 50 49 48.4329 49 46.5C49 44.5671 50.5671 43 52.5 43ZM18.2969 17L11.0117 34H60.9893L53.7031 17H18.2969ZM14.2275 14.3066V14.3076V14.3066ZM57.4082 13.8838C57.5939 14.0806 57.767 14.2904 57.9258 14.5127C57.767 14.2904 57.5939 14.0806 57.4082 13.8838ZM15.8359 12.875V12.876V12.875Z" fill="white"/>
</g>
</svg>
